<svg xmlns="http://www.w3.org/2000/svg" viewBox="0 0 720 360" role="img" aria-label="World activity map">
  <rect width="720" height="360" fill="none"/>
  <g fill="#26384d" opacity=".9">
    <path d="M97 112l36-20 55 8 21 22-18 25 27 19-18 31-57-4-36-21-39 7-24-24 18-29z"/>
    <path d="M202 207l39 12 25 30-11 40-36 13-25-27-25-9 12-36z"/>
    <path d="M311 92l52-16 35 15 9 37-39 26-48-14-31 8-22-19 15-26z"/>
    <path d="M366 170l44 10 31 39-10 63-42 39-36-18-14-52 12-49z"/>
    <path d="M430 100l73-30 77 16 71 44-18 39-62-10-39 27-50-6-32 16-30-26 22-31z"/>
    <path d="M543 222l37 18 42 54-22 31-55-12-25-44z"/>
  </g>
  <g fill="#ef4444" opacity=".86">
    <path d="M138 151l38-11 24 20-10 25-41-5-25-17z"/>
    <path d="M525 137l39-12 34 19-19 25-42-7z"/>
  </g>
  <g fill="#fb7185" opacity=".82">
    <path d="M476 107l29-14 25 7-14 24-31 2z"/>
    <path d="M586 114l42 15-11 22-36-8z"/>
  </g>
  <g fill="#f97316" opacity=".75">
    <path d="M328 98l37-10 18 17-22 22-31-7z"/>
  </g>
  <g fill="#eab308" opacity=".75">
    <path d="M187 229l41 11 11 31-28 14-22-28z"/>
  </g>
</svg>
